<?xml version="1.0" encoding="UTF-8"?>
<!-- Generator: visioncortex VTracer 0.6.4 -->
<svg version="1.1" xmlns="http://www.w3.org/2000/svg" width="605" height="605">
<path d="M0 0 C0.88 0.01 1.75 0.01 2.66 0.02 C20.98 0.36 35.76 8.38 48.38 21.44 C58.42 33.24 61.94 47.17 63.12 62.25 C64.39 78.13 69.22 93.13 81.19 104.31 C92.32 113.45 107.3 120.4 122.03 119.59 C137.96 117.57 153.64 111.81 164.04 99.04 C172.28 87.92 176.13 76.43 177.06 62.75 C178.59 44.03 184.07 28.42 198.19 15.31 C213.71 2.55 230.46 -1.07 250.19 0.31 C266.37 2.51 280.66 11.83 290.44 24.62 C298.87 36.79 301.94 49.26 303.12 63.81 C304.55 80.8 310.44 94.61 323.19 106.31 C335.46 115.55 347.56 118.37 362.52 119.6 C380.42 121.11 395.63 127.43 407.7 141.17 C419.39 156.08 422.66 171.47 422.57 190.1 C422.57 191.66 422.58 193.21 422.58 194.77 C422.6 199.02 422.59 203.26 422.58 207.5 C422.57 212.09 422.58 216.68 422.59 221.27 C422.6 230.25 422.6 239.23 422.59 248.21 C422.59 255.51 422.59 262.81 422.59 270.11 C422.59 271.15 422.59 272.19 422.59 273.27 C422.59 275.38 422.59 277.5 422.59 279.61 C422.6 299.42 422.59 319.23 422.58 339.03 C422.56 356.01 422.56 372.99 422.58 389.97 C422.59 409.71 422.6 429.45 422.59 449.19 C422.59 451.3 422.59 453.41 422.59 455.51 C422.59 456.55 422.59 457.59 422.59 458.65 C422.58 465.94 422.59 473.23 422.6 480.52 C422.6 489.4 422.6 498.29 422.59 507.18 C422.58 511.71 422.58 516.24 422.59 520.77 C422.59 524.92 422.59 529.07 422.57 533.23 C422.57 534.72 422.57 536.22 422.58 537.72 C422.66 556.12 418.42 571.28 406.19 585.31 C405.44 586.22 405.44 586.22 404.68 587.14 C394.63 598.36 378.07 604.65 363.37 605.47 C346.12 605.97 330.62 600.73 317.43 589.46 C304.87 577.41 297.6 561.54 297.09 544.14 C297.06 540.17 297.05 536.21 297.06 532.24 C297.05 530.7 297.05 529.16 297.05 527.62 C297.05 524.28 297.04 520.94 297.04 517.6 C297.05 512.16 297.04 506.72 297.04 501.28 C297.03 493.39 297.02 485.5 297.02 477.6 C297.01 465.12 297 452.63 296.98 440.15 C296.97 435.87 296.96 431.6 296.96 427.33 C296.96 426.26 296.96 425.19 296.95 424.09 C296.94 411.94 296.92 399.79 296.9 387.63 C296.9 385.97 296.9 385.97 296.9 384.27 C296.88 366.27 296.87 348.28 296.86 330.29 C296.85 311.8 296.83 293.31 296.79 274.83 C296.77 263.43 296.76 252.04 296.77 240.64 C296.77 232.83 296.76 225.02 296.74 217.2 C296.72 212.7 296.72 208.2 296.73 203.69 C296.74 199.56 296.73 195.43 296.71 191.3 C296.7 189.82 296.7 188.33 296.71 186.84 C296.81 169.91 292.21 155.37 280.38 142.94 C269.19 132.38 255.23 126.57 239.84 126.24 C223.93 126.85 210.59 132.54 199.04 143.32 C188.47 154.74 183.07 169.36 183.06 184.87 C183.06 186.18 183.05 187.49 183.05 188.84 C183.05 190.28 183.05 191.73 183.06 193.18 C183.05 194.72 183.05 196.26 183.05 197.8 C183.05 201.15 183.04 204.5 183.04 207.86 C183.05 213.31 183.04 218.76 183.04 224.21 C183.03 232.13 183.02 240.05 183.02 247.97 C183.01 260.49 183 273.01 182.98 285.53 C182.97 289.82 182.96 294.11 182.96 298.39 C182.96 299.46 182.96 300.53 182.95 301.64 C182.94 313.83 182.92 326.02 182.9 338.21 C182.9 339.33 182.9 340.44 182.9 341.59 C182.88 359.64 182.87 377.69 182.86 395.73 C182.85 414.27 182.83 432.81 182.79 451.35 C182.77 462.78 182.76 474.21 182.77 485.64 C182.77 493.48 182.76 501.32 182.74 509.15 C182.72 513.67 182.72 518.19 182.73 522.71 C182.74 526.85 182.73 531 182.71 535.14 C182.7 536.63 182.7 538.12 182.71 539.62 C182.82 557.64 178 572.85 165.46 586.03 C164.71 586.78 163.96 587.54 163.19 588.31 C162.23 589.29 162.23 589.29 161.25 590.28 C150.39 600.59 134.95 605.31 120.19 605.81 C102.7 605.21 87.51 598.76 75.19 586.31 C74.56 585.72 73.94 585.13 73.29 584.52 C69.19 580.32 66.53 575.56 63.88 570.38 C63.37 569.39 63.37 569.39 62.85 568.39 C58.04 558.52 57.9 548.92 57.93 538.13 C57.93 536.59 57.92 535.05 57.92 533.51 C57.91 529.3 57.91 525.08 57.91 520.87 C57.92 516.32 57.91 511.76 57.9 507.21 C57.89 499.33 57.88 491.44 57.88 483.56 C57.88 472.14 57.87 460.72 57.85 449.31 C57.82 430.76 57.79 412.21 57.77 393.67 C57.77 392 57.77 392 57.77 390.31 C57.76 377.93 57.75 365.56 57.74 353.19 C57.74 348.71 57.73 344.22 57.73 339.74 C57.73 338.08 57.73 338.08 57.73 336.39 C57.72 317.92 57.69 299.45 57.66 280.98 C57.64 269.59 57.63 258.21 57.63 246.83 C57.63 239.02 57.62 231.22 57.6 223.41 C57.59 218.91 57.59 214.42 57.6 209.92 C57.6 205.79 57.6 201.66 57.58 197.54 C57.57 196.05 57.58 194.57 57.58 193.09 C57.66 173.9 54.07 156.51 40.19 142.31 C26.69 130.92 11.86 125.31 -5.95 126.53 C-17.18 128.07 -29.41 132.68 -37.43 140.99 C-38.81 142.31 -38.81 142.31 -40.81 142.31 C-41.07 142.88 -41.33 143.44 -41.6 144.02 C-42.93 146.54 -44.5 148.71 -46.19 151 C-54.61 162.93 -56.11 173.99 -56.08 188.35 C-56.08 189.88 -56.09 191.42 -56.09 192.96 C-56.1 197.17 -56.1 201.38 -56.1 205.58 C-56.1 210.13 -56.11 214.67 -56.12 219.22 C-56.14 227.09 -56.14 234.97 -56.15 242.84 C-56.15 254.24 -56.17 265.63 -56.19 277.03 C-56.23 295.54 -56.26 314.05 -56.28 332.56 C-56.28 333.67 -56.28 334.78 -56.28 335.92 C-56.29 343.78 -56.3 351.64 -56.31 359.5 C-56.32 368.47 -56.33 377.44 -56.34 386.41 C-56.35 387.51 -56.35 388.62 -56.35 389.76 C-56.37 408.19 -56.4 426.63 -56.44 445.07 C-56.46 456.43 -56.47 467.79 -56.48 479.16 C-56.48 486.95 -56.49 494.74 -56.51 502.53 C-56.52 507.03 -56.53 511.52 -56.52 516.01 C-56.52 520.13 -56.53 524.25 -56.54 528.37 C-56.55 529.85 -56.55 531.33 -56.54 532.82 C-56.5 551.4 -59.07 567.39 -70.81 582.31 C-71.25 582.92 -71.69 583.54 -72.14 584.17 C-80.78 595.5 -96.09 602.99 -109.92 605.03 C-127.78 606.79 -144.17 603.26 -158.59 592.18 C-172.16 580.47 -180.71 565.72 -182.09 547.65 C-182.2 543.6 -182.22 539.55 -182.2 535.5 C-182.2 533.94 -182.21 532.38 -182.22 530.82 C-182.23 526.57 -182.23 522.32 -182.22 518.07 C-182.21 513.47 -182.23 508.87 -182.24 504.27 C-182.25 495.27 -182.26 486.28 -182.25 477.28 C-182.25 469.97 -182.25 462.65 -182.25 455.34 C-182.25 454.3 -182.25 453.25 -182.26 452.18 C-182.26 450.06 -182.26 447.94 -182.26 445.82 C-182.27 425.97 -182.27 406.12 -182.26 386.27 C-182.25 368.12 -182.26 349.98 -182.28 331.84 C-182.31 313.19 -182.32 294.54 -182.31 275.89 C-182.31 265.43 -182.31 254.97 -182.33 244.51 C-182.34 235.6 -182.34 226.69 -182.33 217.79 C-182.32 213.25 -182.31 208.71 -182.33 204.17 C-182.34 200.01 -182.34 195.85 -182.32 191.68 C-182.32 190.19 -182.32 188.69 -182.33 187.19 C-182.45 167.96 -177.11 151.58 -163.81 137.31 C-151.17 125.33 -136.9 120.7 -119.94 119.38 C-102.2 117.96 -88.23 112.58 -75.81 99.31 C-67.42 88.34 -63.12 76.36 -62.53 62.62 C-61.73 44.33 -55.39 27.98 -41.81 15.31 C-29.71 5.17 -15.69 -0.11 0 0 Z " fill="#05588E" transform="translate(181.8125,-0.3125)"/>
</svg>
